<?xml version="1.0" standalone="no"?>
<!DOCTYPE svg PUBLIC "-//W3C//DTD SVG 20010904//EN"
 "http://www.w3.org/TR/2001/REC-SVG-20010904/DTD/svg10.dtd">
<svg version="1.0" xmlns="http://www.w3.org/2000/svg"
 width="520.000000pt" height="479.000000pt" viewBox="0 0 520.000000 479.000000"
 preserveAspectRatio="xMidYMid meet">

<g transform="translate(0.000000,479.000000) scale(0.100000,-0.100000)"
fill="#ffffff" stroke="white" stroke-width="100"  >
<path d="M2518 4259 c-260 -25 -547 -119 -761 -248 -458 -276 -762 -705 -875
-1231 -24 -115 -26 -144 -27 -360 0 -218 2 -244 27 -361 36 -166 78 -288 149
-437 257 -539 759 -918 1354 -1023 183 -32 436 -32 620 0 671 117 1225 592
1439 1231 78 236 102 402 93 660 -11 323 -96 610 -265 890 -361 599 -1055 946
-1754 879z m490 -109 c629 -116 1152 -568 1352 -1169 73 -218 84 -295 84 -561
0 -266 -11 -343 -84 -561 -245 -736 -959 -1228 -1735 -1196 -779 32 -1444 572
-1635 1327 -40 159 -50 246 -50 430 0 184 10 271 50 430 180 711 770 1226
1513 1320 115 14 376 4 505 -20z"/>
<path d="M2948 3283 c-8 -10 -60 -153 -116 -318 -55 -165 -182 -540 -281 -833
-100 -294 -181 -543 -181 -553 0 -11 11 -24 26 -31 23 -11 29 -10 44 9 9 12
60 149 113 305 52 156 179 530 281 832 102 302 186 557 186 567 0 17 -27 39
-48 39 -5 0 -16 -8 -24 -17z"/>
<path d="M1803 2667 c-174 -117 -321 -221 -327 -230 -8 -12 -8 -22 0 -34 14
-23 635 -442 655 -443 23 0 41 25 37 52 -2 18 -68 67 -285 213 -156 105 -282
192 -282 195 0 3 127 91 282 195 217 146 283 195 285 213 4 26 -13 52 -35 52
-7 0 -156 -96 -330 -213z"/>
<path d="M3226 2858 c-13 -19 -14 -25 -2 -42 7 -11 137 -104 289 -206 152
-102 276 -187 276 -190 0 -3 -125 -90 -279 -193 -154 -103 -284 -196 -289
-206 -12 -22 12 -61 37 -61 21 1 642 420 656 443 8 12 8 22 0 34 -13 21 -641
443 -659 443 -8 0 -21 -10 -29 -22z"/>
</g>
</svg>
